<?xml version="1.0" encoding="UTF-8"?>
<!DOCTYPE svg PUBLIC "-//W3C//DTD SVG 1.1//EN" "http://www.w3.org/Graphics/SVG/1.1/DTD/svg11.dtd">
<svg xmlns="http://www.w3.org/2000/svg" xml:space="preserve" width="9.93055in" height="3.54166in" version="1.1" style="shape-rendering:geometricPrecision; text-rendering:geometricPrecision; image-rendering:optimizeQuality; fill-rule:evenodd; clip-rule:evenodd"
viewBox="0 0 9931 2000"
 xmlns:xlink="http://www.w3.org/1999/xlink">
 <defs>
  <style type="text/css">
   <![CDATA[
    .fil1 {fill:#fff}
    .fil2 {fill:#fff;fill-rule:nonzero}
    .fil0 {fill:#fff;fill-rule:nonzero}
   ]]>
  </style>
 </defs>
 <g>
  <path class="fil1" d="M8954 2038c-35,74 -81,129 -137,165 -58,36 -120,54 -189,54l-1 0c-69,0 -132,-19 -189,-56 -57,-38 -103,-95 -137,-169 -33,-75 -50,-166 -50,-273 0,-101 15,-190 47,-266 31,-77 75,-135 132,-176 57,-42 121,-61 194,-61l4 0c68,0 130,20 188,60 57,40 103,97 138,172 34,75 51,166 51,271 0,112 -17,206 -51,280zm397 -1607c-33,-38 -78,-57 -138,-57 -60,0 -106,20 -138,63 -32,41 -49,102 -49,183l0 582c-74,-82 -151,-140 -229,-180 -48,-24 -106,-42 -170,-51 -37,-5 -75,-8 -118,-8 -195,0 -354,69 -475,207 -120,138 -180,329 -180,576 0,116 15,225 46,324 31,100 74,186 133,260 59,74 129,130 209,171 80,39 167,60 262,60 43,0 84,-4 123,-11 26,-4 50,-10 74,-18 60,-20 116,-50 167,-87 52,-38 105,-88 157,-148l0 38c0,73 18,128 52,167 36,38 80,59 134,59 55,0 100,-19 134,-56 34,-38 52,-95 52,-170l0 -1737c0,-73 -17,-129 -49,-167z"/>
  <path class="fil1" d="M6815 1333c63,-68 143,-101 241,-101l1 0c102,0 185,33 248,100 63,66 100,167 109,303l-714 0c13,-133 51,-234 115,-301zm920 721c-24,-22 -57,-33 -98,-33 -37,0 -65,9 -86,26 -50,46 -89,83 -120,110 -31,26 -65,51 -102,75 -36,23 -74,41 -112,51 -40,11 -82,17 -129,17 -10,0 -20,0 -29,-1 -59,-4 -114,-21 -163,-51 -59,-35 -105,-86 -141,-152 -34,-69 -52,-148 -54,-238l770 0c103,0 184,-15 240,-43 58,-31 86,-95 86,-193 0,-107 -28,-212 -83,-315 -55,-102 -137,-186 -248,-252 -110,-65 -241,-97 -396,-97l-11 0c-114,1 -218,20 -312,56 -97,38 -179,93 -246,164 -65,71 -116,157 -151,257 -35,100 -52,208 -52,324 0,248 70,442 211,586 133,137 317,208 550,216 13,1 27,1 41,1 110,0 208,-14 294,-43 86,-29 156,-65 212,-109 56,-45 98,-91 126,-138 28,-47 42,-89 42,-124 0,-40 -13,-71 -38,-93z"/>
  <path class="fil1" d="M5238 1333c63,-68 143,-101 241,-101l1 0c102,0 185,33 248,100 64,66 100,167 110,303l-715 0c14,-133 52,-234 115,-301zm822 688c-38,0 -66,9 -87,26 -48,46 -89,83 -120,110 -31,26 -64,51 -101,75 -37,23 -74,41 -114,51 -38,11 -82,17 -129,17 -10,0 -20,0 -29,-1 -59,-4 -114,-21 -163,-51 -57,-35 -105,-86 -139,-152 -36,-69 -54,-148 -55,-238l771 0c102,0 183,-15 240,-43 56,-31 84,-95 84,-193 0,-107 -27,-212 -82,-315 -55,-102 -138,-186 -248,-252 -110,-65 -243,-97 -396,-97l-13 0c-114,1 -217,20 -312,56 -97,38 -179,93 -245,164 -66,71 -118,157 -152,257 -35,100 -52,208 -52,324 0,248 72,442 212,586 133,137 315,208 549,216 14,1 27,1 41,1 111,0 208,-14 294,-43 86,-29 156,-65 212,-109 57,-45 98,-91 126,-138 28,-47 42,-89 42,-124 0,-40 -13,-71 -37,-93 -26,-22 -59,-33 -98,-33z"/>
  <path class="fil1" d="M820 2300l0 -940c27,3 52,4 79,4 128,0 248,-35 350,-96l0 1032c0,88 -20,153 -60,197 -40,43 -92,65 -156,65 -63,0 -112,-22 -153,-66 -40,-43 -60,-108 -60,-195z"/>
  <path class="fil1" d="M4134 2038c-34,74 -80,129 -138,165 -56,36 -120,54 -188,54l-1 0c-69,0 -132,-19 -189,-56 -59,-38 -103,-95 -137,-169 -33,-75 -50,-166 -50,-273 0,-101 15,-190 46,-266 32,-77 75,-135 133,-176 56,-42 121,-61 193,-61l5 0c68,0 130,20 187,60 59,40 105,97 139,172 33,75 51,166 51,271 0,112 -18,206 -51,280zm396 -1607c-33,-38 -79,-57 -137,-57 -60,0 -106,20 -138,63 -33,41 -48,102 -48,183l0 582c-74,-82 -151,-140 -229,-180 -50,-24 -106,-42 -170,-51 -37,-5 -75,-8 -117,-8 -195,0 -355,69 -475,207 -120,138 -180,329 -180,576 0,116 15,225 45,324 31,100 75,186 134,260 59,74 129,130 209,171 80,39 167,60 262,60 42,0 83,-4 123,-11 26,-4 50,-10 74,-18 60,-20 116,-50 167,-87 52,-38 103,-88 157,-148l0 38c0,73 18,128 52,167 34,38 80,59 134,59 52,0 98,-19 133,-56 35,-38 51,-95 51,-170l0 -1737c0,-73 -15,-129 -47,-167z"/>
  <path class="fil1" d="M1879 1177l0 49c70,-92 146,-158 227,-202 83,-42 178,-64 285,-64 103,0 197,23 278,68 82,45 142,109 183,192 27,49 43,101 51,157 8,55 12,126 12,213l0 732c0,79 -19,139 -55,179 -36,41 -83,61 -141,61 -59,0 -106,-20 -143,-63 -37,-41 -55,-101 -55,-177l0 -655c0,-130 -18,-230 -54,-299 -36,-69 -109,-103 -216,-103 -70,0 -134,22 -192,63 -57,42 -101,100 -128,174 -19,59 -28,167 -28,330l0 492c0,80 -19,139 -56,180 -37,39 -84,60 -143,60 -57,0 -103,-20 -140,-63 -37,-41 -55,-101 -55,-177l0 -1138c0,-75 17,-131 50,-167 32,-37 77,-56 134,-56 34,0 65,8 93,24 28,17 51,41 68,74 17,33 24,73 24,119z"/>
  <path class="fil1" d="M823 47c105,-38 215,-60 325,-61l13 0c164,1 324,51 458,167 42,40 91,89 110,148 23,74 -80,-8 -94,-18 -74,-49 -148,-89 -231,-117 -447,-138 -870,111 -1133,498 -110,171 -181,351 -240,549 -6,22 -12,50 -23,69 -12,22 -5,-59 -5,-61 9,-82 26,-161 46,-240 121,-422 389,-773 775,-934z"/>
  <path class="fil1" d="M1169 1093c-160,82 -355,18 -435,-142 -82,-160 -18,-355 142,-436 160,-82 355,-18 436,142 82,160 18,355 -142,435z"/>
 </g>
</svg>
