<svg id="Layer_1" data-name="Layer 1" xmlns="http://www.w3.org/2000/svg" viewBox="0 0 507.19 551.76"><defs><style>.cls-1{fill:#fff;}</style></defs><title>Rice_Marks_Digital_Shield_White</title><path class="cls-1" d="M355.17,160.19A359.76,359.76,0,0,0,253.6,145.6c-6.61,0-13.21.17-19.73.52a353,353,0,0,0-81.84,14,8.93,8.93,0,0,0-6.43,8.6v92.71a153.55,153.55,0,0,0,96,142.4,31.56,31.56,0,0,0,23.89,0,153.56,153.56,0,0,0,96-142.4h.09V168.79A9,9,0,0,0,355.17,160.19Zm-20.33,34a24.67,24.67,0,0,1,3.3,6.34,80.91,80.91,0,0,1,3.12,11.9.33.33,0,0,1-.08.26c0,.09-.09.09-.18.09h-.17a21,21,0,0,1-5.65-4.61,21.67,21.67,0,0,1-2.52-3.64,29.45,29.45,0,0,1-1.65-4.18,1.71,1.71,0,0,0-1.56-1.13h-.35a.47.47,0,0,0-.35.27c-.08.08-.08.26-.08.43a23.16,23.16,0,0,0,10.94,14.6,5.15,5.15,0,0,1,2.7,3.82c.08.52.17,1,.26,1.48a.27.27,0,0,1-.09.17c0,.09-.09.09-.17.09h-.09a31.93,31.93,0,0,1-5.47-2.61,25.93,25.93,0,0,1-6.26-5.3,27.69,27.69,0,0,1-4.86-8.17,1.54,1.54,0,0,0-1.48-1,1,1,0,0,0-.52.09c-.18,0-.26.08-.35.26s-.09.26,0,.43a28.29,28.29,0,0,0,5.56,9.82,30.66,30.66,0,0,0,6.78,5.74,23.88,23.88,0,0,0,4.69,2.34,5.44,5.44,0,0,1,3.3,3.82,4.47,4.47,0,0,1,.17,1.22.41.41,0,0,1-.08.26c0,.09-.09.09-.18.09h-.08a33.66,33.66,0,0,1-9.73-3.91,33.24,33.24,0,0,1-8.08-6.78,33.59,33.59,0,0,1-5.91-9.9,31.56,31.56,0,0,1-2.18-11.73v-1.57a.69.69,0,0,1,.7-.69h1.65a13.43,13.43,0,0,0,4.52-.78,13.87,13.87,0,0,0,4-2.18,1.42,1.42,0,0,1,.78-.26.9.9,0,0,1,.69.18A18.44,18.44,0,0,1,334.84,194.17Zm-.61,32.32c-.09.26-.26.43-.35.69a9.89,9.89,0,0,1-1,1.65.46.46,0,0,1-.43.26h-.17a53.84,53.84,0,0,1-6.78-2.6c-.09-.09-.18-.09-.18-.18v-.17a32.84,32.84,0,0,0,1.92-4.87c.08-.08.17-.17.26-.17s.08,0,.17.09a33.34,33.34,0,0,0,6.17,4.17A.86.86,0,0,1,334.23,226.49Zm-13.47,4.95h1a1.19,1.19,0,0,1,1.12.87l.27,1.13a.12.12,0,0,1,0,.17c-.09.09-.09.09-.18.09h-.61a3.43,3.43,0,0,1-.87-.17,3.85,3.85,0,0,1-.78-.44.93.93,0,0,0-1-.09l-.43.26a4.5,4.5,0,0,1-.7.35.31.31,0,0,1-.26.09h-2.69a.47.47,0,0,1-.44-.61l.09-.26a.35.35,0,0,0-.18-.35,1.53,1.53,0,0,0-2,.87.47.47,0,0,1-.44.26h-.69a.47.47,0,0,1-.44-.61l.18-.52a1.71,1.71,0,0,1,1.65-1.13h1.3a4.56,4.56,0,0,0,3.82-2.08,36.77,36.77,0,0,0,2.7-5.22c.08-.26.34-.34.61-.17a4.75,4.75,0,0,0,.95.52,1.5,1.5,0,0,1,.52,1.91c-.17.35-.43.7-.61,1.05a18.94,18.94,0,0,1-1.65,2.6l-.52.78A.46.46,0,0,0,320.76,231.44Zm-14.42,1.13a1.54,1.54,0,0,0-2,.87.49.49,0,0,1-.44.26h-.78a.46.46,0,0,1-.43-.61l.17-.52a1.69,1.69,0,0,1,1.65-1.13h1.3a4.44,4.44,0,0,0,3.83-2.09,29.71,29.71,0,0,0,2.43-4.69.38.38,0,0,1,.61-.17l.78.52a1.39,1.39,0,0,1,.52,1.91c-.35.61-.69,1.13-1,1.74s-.87,1-1.22,1.65a4,4,0,0,0-1.56,1.82l-.35.79-.26.61a.49.49,0,0,1-.43.26h-2.26a.47.47,0,0,1-.44-.61l.09-.26A.35.35,0,0,0,306.34,232.57Zm11.2-10.08c.09-.35.27-.69.35-1,.09-.18.26-.18.44-.09l1.3,1c.09.09.17.26.09.35a8.69,8.69,0,0,1-.35.87.27.27,0,0,1-.35.09c-.52-.35-.95-.61-1.39-.87A.27.27,0,0,1,317.54,222.49Zm3.83-1.22c-1.05-.78-2-1.56-2.87-2.34a30.68,30.68,0,0,1-5.56-6.52,1.53,1.53,0,0,0-1.3-.69,1.34,1.34,0,0,0-.79.17c-.08.09-.26.26-.26.43a1.1,1.1,0,0,0,.09.53,36.92,36.92,0,0,0,4.17,5.47,4.69,4.69,0,0,1,1,2.09,3.89,3.89,0,0,1-.17,2.25c-.09.27-.17.44-.26.7-.09.09-.17.17-.26.17h-.09a35,35,0,0,1-6.78-4.95,34.5,34.5,0,0,1-5.3-6.43,32.74,32.74,0,0,1-5.12-17.72c0-.53.09-1.13.09-1.74a.68.68,0,0,1,.69-.7h.09a17.48,17.48,0,0,0,2.17.18h4.69a.59.59,0,0,0,.61-.61,1.56,1.56,0,0,0-1.56-1.57H301a12,12,0,0,1-1.74-.08,2,2,0,0,1-1.74-1.83,8.12,8.12,0,0,1,.52-3.39c.09-.08.18-.17.26-.17h.09a6.25,6.25,0,0,0,3.3.87,7,7,0,0,0,3-.7h.08c.09,0,.26,0,.26.18a4.31,4.31,0,0,0,.44,1.48l3.3,6.86a1.9,1.9,0,0,0,3.47,0l3.31-6.86a10.71,10.71,0,0,0,.43-1.48c0-.09.17-.18.26-.18h.09a6.91,6.91,0,0,0,2.95.7,6.45,6.45,0,0,0,3.3-.87h.09c.09,0,.26.09.26.17a7.58,7.58,0,0,1,.52,3.39,2,2,0,0,1-1.73,1.83A12.67,12.67,0,0,1,320,190h-3.65a1.57,1.57,0,0,0-1.57,1.57.59.59,0,0,0,.61.61.33.33,0,0,1,.18.08c.08.09.08.09.08.18a16,16,0,0,0-.08,2,36.17,36.17,0,0,0,2.26,12.51,35.2,35.2,0,0,0,6.34,10.6,3.9,3.9,0,0,1,.87,1.91,4.73,4.73,0,0,1-.18,2.17c-.17.44-.26.78-.43,1.22-.09.09-.18.17-.26.17H324A27.37,27.37,0,0,1,321.37,221.27ZM295.3,188.08a.31.31,0,0,1-.09.18c0,.08-.08.08-.17.08s-.09,0-.09-.17a10.86,10.86,0,0,1-4.25-4.6,2.39,2.39,0,0,1-.26-1.74,2.59,2.59,0,0,1,.86-1.48,7.43,7.43,0,0,1,3.22-1.48h.09a.23.23,0,0,1,.26.26,5.91,5.91,0,0,0,.87,2.78,2.53,2.53,0,0,1,.17,2.09A9.72,9.72,0,0,0,295.3,188.08Zm-2.52,2.44a.69.69,0,0,1,1-.53.62.62,0,0,1,.35.18,3.34,3.34,0,0,1,1.74,3v1.22a34.9,34.9,0,0,0,4.08,16.5.55.55,0,0,1-.26.7.58.58,0,0,1-.61-.17,31.91,31.91,0,0,1-2.43-3.31,27.23,27.23,0,0,1-4.08-14.42C292.61,192.69,292.69,191.56,292.78,190.52Zm4.09-12a4.87,4.87,0,1,1,4.86,4.86A4.85,4.85,0,0,1,296.87,178.53Zm10.07,5.38a3.53,3.53,0,0,1,3.57-3.56,3.44,3.44,0,0,1,3.47,3.56,3.32,3.32,0,0,1-.35,1.57l-2.78,5.91a.43.43,0,0,1-.78,0l-2.78-5.91A3.44,3.44,0,0,1,306.94,183.91Zm7.48-5.38a4.85,4.85,0,0,1,4.86-4.87,5,5,0,0,1,4.87,4.87,4.87,4.87,0,0,1-9.73,0Zm15.2,1.82a2.57,2.57,0,0,1,1,1.56,3.33,3.33,0,0,1-.26,1.83,11.5,11.5,0,0,1-4.26,4.6h-.17c-.09,0-.09,0-.18-.08s-.08-.09-.08-.18A9.67,9.67,0,0,0,325,184a2.55,2.55,0,0,1,.17-2.09,6.51,6.51,0,0,0,.87-2.78.23.23,0,0,1,.26-.26A7.76,7.76,0,0,1,329.62,180.35Zm-1-9a1.69,1.69,0,0,1,.95.61,11.48,11.48,0,0,1,2,6.52v.09a.23.23,0,0,1-.26.26c-.08,0-.08-.09-.17-.09a9.37,9.37,0,0,0-3.82-1.91,2.82,2.82,0,0,1-1.92-1.48,5.56,5.56,0,0,0-1.39-1.82c-.08,0-.08-.09-.08-.18A.69.69,0,0,1,324,173a6.89,6.89,0,0,1,4.26-1.66Zm-13.21,1.05a11.15,11.15,0,0,1,2.17-3.22,6,6,0,0,1,3-1.56,6.72,6.72,0,0,1,1.3-.09,6.46,6.46,0,0,1,1.3.18,11.11,11.11,0,0,1,3.3,1.56.31.31,0,0,1,.09.26.18.18,0,0,1-.17.17,9,9,0,0,0-3.65,1.83,2.44,2.44,0,0,1-1.57.52c-.17,0-.34-.09-.52-.09a7.24,7.24,0,0,0-1.39-.17,6.59,6.59,0,0,0-3.39.87h-.17c-.09,0-.17-.09-.35,0C315.37,172.53,315.29,172.44,315.37,172.36Zm-9.64-3.83c.08-.08.17-.17.26-.17h.17a11.42,11.42,0,0,1,3.22,2.61,1.56,1.56,0,0,0,.87.34,1,1,0,0,0,.86-.34,11.72,11.72,0,0,1,3.22-2.61h.17c.09,0,.18.09.26.17s.09.18,0,.26a17.75,17.75,0,0,0-.95,1.57,13.53,13.53,0,0,0-1.3,3.73,16.57,16.57,0,0,0-.27,4.18c0,.08,0,.08-.08.17s-.09.09-.18.09h-.08a7.49,7.49,0,0,0-1.48-.18,4.43,4.43,0,0,0-1.48.18h-.08c-.09,0-.09,0-.18-.09s-.08-.09-.08-.17a16.57,16.57,0,0,0-.27-4.18,12.57,12.57,0,0,0-1.3-3.73,4.28,4.28,0,0,0-1.3-1.57C305.64,168.71,305.73,168.62,305.73,168.53Zm-11.38.44a12.61,12.61,0,0,1,3.3-1.57,7.24,7.24,0,0,1,1.3-.17,6.27,6.27,0,0,1,1.3.09,5.41,5.41,0,0,1,3.05,1.56,8.45,8.45,0,0,1,2.17,3.22c.08.08,0,.26,0,.26s-.18.08-.26.08H305a7.54,7.54,0,0,0-3.39-.86,7.43,7.43,0,0,0-1.39.17,1,1,0,0,1-.52.09,2.4,2.4,0,0,1-1.56-.53,9.13,9.13,0,0,0-3.74-1.91.18.18,0,0,1-.17-.17C294.17,169.14,294.26,169.06,294.35,169Zm-5,9.73a11.56,11.56,0,0,1,2-6.52,1.08,1.08,0,0,1,1-.6h.34a6.42,6.42,0,0,1,4.26,1.65c.09,0,.09.08.09.17s0,.09-.09.17a5.63,5.63,0,0,0-1.39,1.83,3.66,3.66,0,0,1-1.91,1.65,9.3,9.3,0,0,0-3.82,1.91c-.09.09-.09.09-.18.09a.28.28,0,0,1-.26-.26Zm-80.54,15.38a24.36,24.36,0,0,1,3.3,6.34,82.15,82.15,0,0,1,3.13,11.9.33.33,0,0,1-.09.27c0,.08-.08.08-.17.08h-.18a20.82,20.82,0,0,1-8.16-8.25,26.74,26.74,0,0,1-1.65-4.17,1.71,1.71,0,0,0-1.57-1.13h-.35a.44.44,0,0,0-.34.26.63.63,0,0,0-.09.43,23.81,23.81,0,0,0,4.95,9.65,23.32,23.32,0,0,0,6,4.95,5.14,5.14,0,0,1,2.69,3.82c.09.52.18,1,.26,1.48a.26.26,0,0,1-.08.17c0,.09-.09.09-.18.09h-.09a30.83,30.83,0,0,1-5.47-2.61,25.89,25.89,0,0,1-6.25-5.3,27.8,27.8,0,0,1-4.87-8.16,1.51,1.51,0,0,0-1.48-1.05,1.06,1.06,0,0,0-.52.09c-.17,0-.26.09-.35.26a.8.8,0,0,0,0,.44,28.16,28.16,0,0,0,5.56,9.81,30.66,30.66,0,0,0,6.78,5.74,23.61,23.61,0,0,0,4.69,2.34,5.13,5.13,0,0,1,3.22,3.91c.09.44.17.79.26,1.13a.35.35,0,0,1-.09.26c0,.09-.08.09-.17.09h-.09a33.24,33.24,0,0,1-23.72-20.59,31.55,31.55,0,0,1-2.17-11.73V193a.69.69,0,0,1,.69-.7h1.65a13.35,13.35,0,0,0,4.52-.78,13.85,13.85,0,0,0,4-2.17,1.35,1.35,0,0,1,.78-.26,1,1,0,0,1,.7.17A18.56,18.56,0,0,1,208.85,194.08Zm-.61,32.41c-.09.26-.26.43-.35.69a9.85,9.85,0,0,1-.95,1.65.47.47,0,0,1-.44.26h-.17a53.84,53.84,0,0,1-6.78-2.6c-.08-.09-.17-.09-.17-.18v-.17a32.8,32.8,0,0,0,1.91-4.87c.09-.08.17-.17.26-.17s.09,0,.17.09a31.17,31.17,0,0,0,6.17,4.17A.84.84,0,0,1,208.24,226.49Zm-13.47,4.95h1a1.2,1.2,0,0,1,1.13.87l.26,1.13a.11.11,0,0,1,0,.17c-.09.09-.09.09-.17.09h-.61a3.35,3.35,0,0,1-.87-.17,3.85,3.85,0,0,1-.78-.44.94.94,0,0,0-1.05-.09l-.43.26a3.77,3.77,0,0,1-.7.35.3.3,0,0,1-.26.09h-2.69a.46.46,0,0,1-.43-.61l.08-.26a.35.35,0,0,0-.17-.35,1.55,1.55,0,0,0-2,.87.47.47,0,0,1-.43.26h-.7a.46.46,0,0,1-.43-.61l.17-.52a1.71,1.71,0,0,1,1.65-1.13h1.3a4.57,4.57,0,0,0,3.83-2.08,36.72,36.72,0,0,0,2.69-5.22.38.38,0,0,1,.61-.17,4.6,4.6,0,0,0,1,.52,1.53,1.53,0,0,1,.52,1.91c-.18.35-.44.7-.61,1.05A18.94,18.94,0,0,1,195,230l-.52.78A.45.45,0,0,0,194.77,231.44Zm-14.42,1.13a1.54,1.54,0,0,0-2,.87.47.47,0,0,1-.43.26h-.78a.47.47,0,0,1-.44-.61l.18-.52a1.68,1.68,0,0,1,1.65-1.13h1.3a4.43,4.43,0,0,0,3.82-2.09,29.75,29.75,0,0,0,2.44-4.69.37.37,0,0,1,.6-.17l.79.52a1.41,1.41,0,0,1,.52,1.91c-.35.61-.7,1.13-1.05,1.74s-.86,1-1.21,1.65a4,4,0,0,0-1.57,1.82l-.34.79-.26.61a.5.5,0,0,1-.44.26h-2.26a.46.46,0,0,1-.43-.61l.08-.26A.35.35,0,0,0,180.35,232.57Zm11.21-10.08c.09-.35.26-.69.35-1,.08-.18.26-.18.43-.09l1.3,1c.09.09.18.26.09.35a8.69,8.69,0,0,1-.35.87c-.08.09-.26.17-.34.09-.53-.35-1-.61-1.39-.87C191.56,222.75,191.47,222.66,191.56,222.49Zm3.74-1.22c-1.05-.78-2-1.56-2.87-2.34a30.68,30.68,0,0,1-5.56-6.52,1.54,1.54,0,0,0-1.31-.69,1.31,1.31,0,0,0-.78.17c-.08.09-.26.26-.26.43a1.1,1.1,0,0,0,.09.53,35.61,35.61,0,0,0,4.17,5.47,4.69,4.69,0,0,1,1,2.09,3.89,3.89,0,0,1-.17,2.25c-.09.27-.18.44-.26.7-.09.09-.18.17-.26.17H189a35,35,0,0,1-6.78-4.95,34.11,34.11,0,0,1-5.3-6.43,32.65,32.65,0,0,1-5.12-17.72c0-.53.08-1.13.08-1.74a.69.69,0,0,1,.7-.7h.08a17.8,17.8,0,0,0,2.18.18h4.69a.59.59,0,0,0,.61-.61,1.57,1.57,0,0,0-1.57-1.57H175a12,12,0,0,1-1.73-.08,2,2,0,0,1-1.74-1.83,8.12,8.12,0,0,1,.52-3.39c.09-.08.17-.17.26-.17h.09a6.23,6.23,0,0,0,3.3.87,6.91,6.91,0,0,0,3-.7h.09c.09,0,.26,0,.26.18a4.3,4.3,0,0,0,.43,1.48l3.31,6.86a1.9,1.9,0,0,0,3.47,0l3.3-6.86a9.54,9.54,0,0,0,.44-1.48c0-.09.17-.18.26-.18h.09a6.91,6.91,0,0,0,3,.7,6.45,6.45,0,0,0,3.3-.87h.09c.09,0,.26.09.26.17a7.72,7.72,0,0,1,.52,3.39,2,2,0,0,1-1.74,1.83,12.67,12.67,0,0,1-1.74.08h-3.64a1.57,1.57,0,0,0-1.57,1.57.59.59,0,0,0,.61.61.28.28,0,0,1,.17.08c.09.09.09.09.09.18a14.22,14.22,0,0,0-.09,2,36.41,36.41,0,0,0,2.26,12.51,35.43,35.43,0,0,0,6.35,10.6,2.77,2.77,0,0,1,.86,1.91,4.59,4.59,0,0,1-.17,2.17c-.17.44-.26.78-.43,1.22-.09.09-.18.17-.26.17h-.18A26.15,26.15,0,0,1,195.3,221.27Zm-26-33.19a.31.31,0,0,1-.09.18c0,.08-.09.08-.17.08s-.09,0-.09-.17a10.89,10.89,0,0,1-4.26-4.6,2.39,2.39,0,0,1-.26-1.74,2.61,2.61,0,0,1,.87-1.48,7.39,7.39,0,0,1,3.21-1.48h.09a.23.23,0,0,1,.26.26,6.14,6.14,0,0,0,.87,2.78,2.5,2.5,0,0,1,.17,2.09A9.7,9.7,0,0,0,169.32,188.08Zm-2.52,2.44a.69.69,0,0,1,1-.53.66.66,0,0,1,.35.18,3.33,3.33,0,0,1,1.73,3,6.22,6.22,0,0,0,0,1.22,34.8,34.8,0,0,0,4.09,16.5.56.56,0,0,1-.26.7.57.57,0,0,1-.61-.17,29.24,29.24,0,0,1-2.43-3.31,27.15,27.15,0,0,1-4.09-14.42C166.62,192.69,166.71,191.56,166.8,190.52Zm4.08-12a4.86,4.86,0,0,1,4.87-4.87,5,5,0,0,1,4.86,4.87,4.87,4.87,0,0,1-9.73,0ZM181,183.91a3.52,3.52,0,0,1,3.56-3.56,3.59,3.59,0,0,1,3.13,5.13l-2.78,5.91a.43.43,0,0,1-.78,0l-2.78-5.91A3.44,3.44,0,0,1,181,183.91Zm7.38-5.38a4.87,4.87,0,1,1,4.87,4.86A4.86,4.86,0,0,1,188.34,178.53ZM199,184a2.55,2.55,0,0,1,.18-2.09,6.36,6.36,0,0,0,.86-2.78.23.23,0,0,1,.26-.26,7.75,7.75,0,0,1,3.31,1.48,2.51,2.51,0,0,1,1,1.56,3.24,3.24,0,0,1-.26,1.83,11.37,11.37,0,0,1-4.26,4.6h-.17c-.09,0-.09,0-.17-.08s-.09-.09-.09-.18A9.51,9.51,0,0,0,199,184Zm3.56-12.69a1.71,1.71,0,0,1,1,.61,11.56,11.56,0,0,1,2,6.52v.09a.23.23,0,0,1-.26.26c-.09,0-.09-.09-.18-.09a9.3,9.3,0,0,0-3.82-1.91,2.8,2.8,0,0,1-1.91-1.48,5.7,5.7,0,0,0-1.39-1.82c-.09,0-.09-.09-.09-.18A.62.62,0,0,1,198,173a6.86,6.86,0,0,1,4.26-1.66Zm-13.2,1.05a11,11,0,0,1,2.17-3.22,6,6,0,0,1,3-1.56,6.77,6.77,0,0,1,1.3-.09,6.55,6.55,0,0,1,1.31.18,11.23,11.23,0,0,1,3.3,1.56.31.31,0,0,1,.09.26.18.18,0,0,1-.18.17,9.05,9.05,0,0,0-3.65,1.83,2.39,2.39,0,0,1-1.56.52c-.18,0-.35-.09-.52-.09a7.34,7.34,0,0,0-1.39-.17,6.54,6.54,0,0,0-3.39.87h-.18c-.08,0-.17-.09-.34,0C189.39,172.53,189.3,172.44,189.39,172.36Zm-9.65-3.83c.09-.08.18-.17.26-.17h.18a11.38,11.38,0,0,1,3.21,2.61,1.56,1.56,0,0,0,.87.34,1,1,0,0,0,.87-.34,11.83,11.83,0,0,1,3.21-2.61h.18c.08,0,.17.09.26.17s.09.18,0,.26a15.78,15.78,0,0,0-1,1.57,13.53,13.53,0,0,0-1.3,3.73,16.57,16.57,0,0,0-.26,4.18c0,.08,0,.08-.09.17s-.08.09-.17.09h-.09a7.31,7.31,0,0,0-1.48-.18,4.38,4.38,0,0,0-1.47.18h-.09c-.09,0-.09,0-.17-.09s-.09-.09-.09-.17a16.57,16.57,0,0,0-.26-4.18,12.86,12.86,0,0,0-1.3-3.73,4.22,4.22,0,0,0-1.31-1.57C179.66,168.71,179.74,168.62,179.74,168.53Zm-11.38.44a12.61,12.61,0,0,1,3.3-1.57,7.35,7.35,0,0,1,1.31-.17,6.37,6.37,0,0,1,1.3.09,5.39,5.39,0,0,1,3,1.56,8.34,8.34,0,0,1,2.17,3.22c.09.08,0,.26,0,.26s-.17.08-.26.08h-.17a7.57,7.57,0,0,0-3.39-.86,7.24,7.24,0,0,0-1.39.17,1.08,1.08,0,0,1-.52.09,2.44,2.44,0,0,1-1.57-.53,9.09,9.09,0,0,0-3.73-1.91.18.18,0,0,1-.18-.17C168.19,169.14,168.27,169.06,168.36,169Zm-5,9.73a11.48,11.48,0,0,1,2-6.52,1.07,1.07,0,0,1,1-.6h.35a6.44,6.44,0,0,1,4.26,1.65c.08,0,.08.08.08.17s0,.09-.08.17a5.5,5.5,0,0,0-1.39,1.83,3.7,3.7,0,0,1-1.91,1.65,9.34,9.34,0,0,0-3.83,1.91c-.08.09-.08.09-.17.09a.28.28,0,0,1-.26-.26Zm67.33,146a.28.28,0,0,1-.26-.26v-.09a11.55,11.55,0,0,1,2-6.51,1.07,1.07,0,0,1,1-.61h.35a6.41,6.41,0,0,1,4.25,1.65c.09,0,.09.08.09.17s0,.09-.09.18a5.73,5.73,0,0,0-1.39,1.82,5,5,0,0,1-1.91,1.65,9.3,9.3,0,0,0-3.82,1.91C230.83,324.67,230.83,324.67,230.74,324.67ZM266,329.62a2.56,2.56,0,0,1,.17-2.08,6.32,6.32,0,0,0,.87-2.78.23.23,0,0,1,.26-.26,7.32,7.32,0,0,1,3.31,1.47,2.55,2.55,0,0,1,.95,1.57,3.22,3.22,0,0,1-.26,1.82,11.39,11.39,0,0,1-4.26,4.61h-.17c-.09,0-.09,0-.17-.09s-.09-.09-.09-.17A9.56,9.56,0,0,0,266,329.62Zm2.26-7.21a2.78,2.78,0,0,1-1.91-1.48,5.7,5.7,0,0,0-1.39-1.82c-.09,0-.09-.09-.09-.18s.09-.17.09-.34a6.85,6.85,0,0,1,4.26-1.65h.34a1.64,1.64,0,0,1,1,.6,11.61,11.61,0,0,1,2,6.52v.09a.23.23,0,0,1-.26.26c-.09,0-.09-.09-.18-.09A9.3,9.3,0,0,0,268.28,322.41Zm-.87-7.21a9,9,0,0,0-3.65,1.82,2.39,2.39,0,0,1-1.56.52c-.18,0-.35-.08-.52-.08a6.51,6.51,0,0,0-4.78.69h-.52c0-.08-.09-.17,0-.26a10.84,10.84,0,0,1,2.17-3.21,6.1,6.1,0,0,1,3-1.57,7.6,7.6,0,0,1,1.3-.08,6.53,6.53,0,0,1,1.31.17,11.76,11.76,0,0,1,3.3,1.56.35.35,0,0,1,.08.26A.18.18,0,0,1,267.41,315.2Zm-7.12,4.08a4.87,4.87,0,1,1-4.87,4.87A4.85,4.85,0,0,1,260.29,319.28Zm-4.52-4.86a14.6,14.6,0,0,0-1,1.56,13.48,13.48,0,0,0-1.3,3.74,16.46,16.46,0,0,0-.26,4.17c0,.08,0,.08-.09.17s-.09.09-.17.09h-.09a7.31,7.31,0,0,0-1.48-.18,4.38,4.38,0,0,0-1.47.18h-.09c-.09,0-.09,0-.17-.09s-.09-.09-.09-.17a16.46,16.46,0,0,0-.26-4.17A12.92,12.92,0,0,0,248,316a3.18,3.18,0,0,0-1.31-1.56c-.08-.09,0-.18,0-.26s.18-.18.26-.18h.18a11.56,11.56,0,0,1,3.21,2.61,1.57,1.57,0,0,0,.87.35,1,1,0,0,0,.87-.35,12,12,0,0,1,3.21-2.61h.18c.08,0,.17.09.26.18S255.86,314.33,255.77,314.42ZM255,329.53a3.42,3.42,0,0,1-.35,1.57L251.86,337a.43.43,0,0,1-.78,0l-2.78-5.91a3.42,3.42,0,0,1-.35-1.57,3.52,3.52,0,0,1,3.56-3.56A3.46,3.46,0,0,1,255,329.53Zm-7.39-5.38a4.87,4.87,0,1,1-4.86-4.87A4.85,4.85,0,0,1,247.6,324.15ZM246.47,318c-.09,0-.17.09-.26.09H246a7.49,7.49,0,0,0-3.39-.87,7.24,7.24,0,0,0-1.39.17,1.08,1.08,0,0,1-.52.09,2.49,2.49,0,0,1-1.57-.52,9,9,0,0,0-3.73-1.92.18.18,0,0,1-.18-.17c-.08-.09,0-.17.09-.26a12.58,12.58,0,0,1,3.3-1.56,6.56,6.56,0,0,1,1.3-.18,6.42,6.42,0,0,1,1.31.09,5.39,5.39,0,0,1,3,1.56,8.45,8.45,0,0,1,2.17,3.22C246.56,317.81,246.47,318,246.47,318Zm-15,9.47a2.61,2.61,0,0,1,.87-1.48,7.38,7.38,0,0,1,3.21-1.47h.09a.23.23,0,0,1,.26.26,6.22,6.22,0,0,0,.87,2.78,2.47,2.47,0,0,1,.17,2.08,9.73,9.73,0,0,0-.6,4.09.31.31,0,0,1-.09.17c0,.09-.09.09-.18.09s-.08,0-.08-.18a10.89,10.89,0,0,1-4.26-4.6A2.38,2.38,0,0,1,231.44,327.45Zm9.3,29.8a.57.57,0,0,1-.61-.17,28.27,28.27,0,0,1-2.43-3.3,27.21,27.21,0,0,1-4.09-14.43c0-1,.09-2.17.18-3.21a.69.69,0,0,1,1-.52.64.64,0,0,1,.35.17,3.33,3.33,0,0,1,1.73,3v1.22A34.87,34.87,0,0,0,241,356.56.55.55,0,0,1,240.74,357.25Zm10.42,20.42-.34.78-.27.61a.47.47,0,0,1-.43.26h-2.26a.46.46,0,0,1-.43-.61l.08-.26a.36.36,0,0,0-.17-.35,1.55,1.55,0,0,0-2,.87.47.47,0,0,1-.43.26h-.78a.46.46,0,0,1-.44-.6l.17-.53a1.72,1.72,0,0,1,1.66-1.13h1.3a4.45,4.45,0,0,0,3.82-2.08,29.31,29.31,0,0,0,2.43-4.69.38.38,0,0,1,.61-.18l.78.53a1.4,1.4,0,0,1,.53,1.91c-.35.61-.7,1.13-1.05,1.73s-.87,1.13-1.21,1.66A4,4,0,0,0,251.16,377.67Zm10.52-.61h1a1.21,1.21,0,0,1,1.13.87l.26,1.13a.11.11,0,0,1,0,.17c-.09.09-.09.09-.17.09h-.61a3.35,3.35,0,0,1-.87-.17,3.42,3.42,0,0,1-.78-.44.92.92,0,0,0-1.05-.08l-.43.26a4.35,4.35,0,0,1-.7.34.3.3,0,0,1-.26.09h-2.69a.46.46,0,0,1-.43-.61l.08-.26a.36.36,0,0,0-.17-.35,1.55,1.55,0,0,0-2,.87.47.47,0,0,1-.43.26h-.7a.45.45,0,0,1-.43-.6l.17-.53a1.71,1.71,0,0,1,1.65-1.13h1.3a4.57,4.57,0,0,0,3.83-2.08,37.14,37.14,0,0,0,2.69-5.21.38.38,0,0,1,.61-.18c.26.18.61.35.87.52a1.51,1.51,0,0,1,.52,1.92c-.17.34-.44.69-.61,1a18.94,18.94,0,0,1-1.65,2.6l-.52.79A.45.45,0,0,0,261.68,377.06Zm-3.13-9c.09-.35.26-.7.35-1,.08-.17.26-.17.43-.08l1.3,1c.09.09.18.26.09.35-.09.34-.26.6-.35.87s-.17.26-.34.08c-.53-.35-1-.61-1.39-.87C258.55,368.29,258.46,368.2,258.55,368Zm7.3-.79c-.18.44-.26.79-.44,1.22a.41.41,0,0,1-.26.17H265a28.1,28.1,0,0,1-2.61-1.73c-1-.79-2-1.57-2.87-2.35a30.73,30.73,0,0,1-5.56-6.52,1.53,1.53,0,0,0-1.3-.69,1.31,1.31,0,0,0-.78.17.73.73,0,0,0-.26.44,1.2,1.2,0,0,0,.08.52,36.32,36.32,0,0,0,4.18,5.47,4.85,4.85,0,0,1,1,2.09,4,4,0,0,1-.18,2.26c-.08.26-.17.43-.26.69-.08.09-.17.18-.26.18h-.08a35.16,35.16,0,0,1-6.78-5,34.11,34.11,0,0,1-5.3-6.43,32.66,32.66,0,0,1-5.13-17.72c0-.52.09-1.13.09-1.74a.68.68,0,0,1,.69-.69h.09a20,20,0,0,0,2.17.17h4.7a.59.59,0,0,0,.6-.61,1.55,1.55,0,0,0-1.56-1.56H242a10.71,10.71,0,0,1-1.74-.09,2,2,0,0,1-1.74-1.82,8.09,8.09,0,0,1,.53-3.39c.08-.09.17-.18.26-.18h.08a6.28,6.28,0,0,0,3.31.87,7.08,7.08,0,0,0,2.95-.69h.09c.08,0,.26,0,.26.17a4.09,4.09,0,0,0,.43,1.48l3.3,6.86a1.9,1.9,0,0,0,3.48,0l3.3-6.86a9.18,9.18,0,0,0,.43-1.48c0-.09.18-.17.27-.17h.08a7.09,7.09,0,0,0,3,.69,6.45,6.45,0,0,0,3.3-.87h.08c.09,0,.27.09.27.18a7.87,7.87,0,0,1,.52,3.39,2,2,0,0,1-1.74,1.82,11.28,11.28,0,0,1-1.74.09h-3.65a1.55,1.55,0,0,0-1.56,1.56.59.59,0,0,0,.61.61.31.31,0,0,1,.17.09c.09.08.09.08.09.17a14.22,14.22,0,0,0-.09,2,36.13,36.13,0,0,0,2.26,12.51,35.61,35.61,0,0,0,6.34,10.6,3.85,3.85,0,0,1,.87,1.91A4.58,4.58,0,0,1,265.85,367.24Zm9.47,4.87c-.09.26-.26.43-.35.69a10.41,10.41,0,0,1-1,1.66.47.47,0,0,1-.43.26h-.17a55.5,55.5,0,0,1-6.78-2.61c-.09-.09-.17-.09-.17-.17v-.18a33.11,33.11,0,0,0,1.91-4.86c.08-.09.17-.18.26-.18s.08,0,.17.09A32.18,32.18,0,0,0,275,371,.86.86,0,0,1,275.32,372.11Zm9.38.35c0,.08-.09.08-.17.08h-.09a33.48,33.48,0,0,1-17.81-10.68,33.77,33.77,0,0,1-5.91-9.91,31.47,31.47,0,0,1-2.17-11.73v-1.56a.69.69,0,0,1,.69-.7h1.65a13.35,13.35,0,0,0,4.52-.78,13.85,13.85,0,0,0,4-2.17,1.35,1.35,0,0,1,.78-.26,1,1,0,0,1,.7.17,18.56,18.56,0,0,1,4.95,4.78,24.36,24.36,0,0,1,3.3,6.34A82.3,82.3,0,0,1,282.27,358a.32.32,0,0,1-.09.26c0,.08-.09.08-.17.08h-.18a20.82,20.82,0,0,1-8.16-8.25,26.74,26.74,0,0,1-1.65-4.17,1.71,1.71,0,0,0-1.57-1.13h-.35a.46.46,0,0,0-.34.26.64.64,0,0,0-.09.44,23.84,23.84,0,0,0,4.95,9.64,23.32,23.32,0,0,0,6,4.95,5.16,5.16,0,0,1,2.69,3.83c.09.52.18.95.26,1.47a.3.3,0,0,1-.08.18c0,.08-.09.08-.18.08h-.09a31.5,31.5,0,0,1-5.47-2.6,26.16,26.16,0,0,1-6.26-5.3,28.17,28.17,0,0,1-4.86-8.17,1.51,1.51,0,0,0-1.48-1,1.18,1.18,0,0,0-.52.08c-.17,0-.26.09-.35.26a.8.8,0,0,0,0,.44,28.29,28.29,0,0,0,5.56,9.82,30.34,30.34,0,0,0,6.78,5.73,23.65,23.65,0,0,0,4.69,2.35,4.93,4.93,0,0,1,3.22,3.91c.08.43.17.78.26,1.13A.38.38,0,0,1,284.7,372.46Zm45-27.46c-1,1.39-1.91,2.78-3,4.17l-73.24-73.24-73.25,73.24c-.95-1.39-2-2.78-2.95-4.17a157.61,157.61,0,0,1-8.25-13.55L253.6,247,338,331.45A134.09,134.09,0,0,1,329.71,345Zm13.12-23.28L253.6,232.48l-89.32,89.24a141.35,141.35,0,0,1-7.65-21.29l97-96.88,96.87,96.88A147.56,147.56,0,0,1,342.83,321.72Z"/><path class="cls-1" d="M175.66,181.83a3.4,3.4,0,0,0,3.21-2.17.26.26,0,0,0-.43-.27,2.35,2.35,0,0,1-1.74.61,2.61,2.61,0,0,1-2.43-2.43,2.49,2.49,0,0,1,.61-1.74c.17-.26,0-.52-.26-.43a3.41,3.41,0,0,0-2.18,3.21A3.27,3.27,0,0,0,175.66,181.83Z"/><path class="cls-1" d="M245.43,325a2.39,2.39,0,0,1-1.74.6,2.6,2.6,0,0,1-2.43-2.43,2.49,2.49,0,0,1,.61-1.74c.17-.26,0-.52-.26-.43a3.41,3.41,0,0,0-2.18,3.21,3.27,3.27,0,0,0,3.22,3.22,3.4,3.4,0,0,0,3.21-2.17A.26.26,0,0,0,245.43,325Z"/><path class="cls-1" d="M319.2,181.83a3.49,3.49,0,0,0,3.21-2.17.26.26,0,0,0-.43-.27,2.37,2.37,0,0,1-1.74.61,2.6,2.6,0,0,1-2.43-2.43,2.53,2.53,0,0,1,.6-1.74c.18-.26,0-.52-.26-.43a3.41,3.41,0,0,0-2.17,3.21A3.27,3.27,0,0,0,319.2,181.83Z"/><path class="cls-1" d="M301.64,181.83a3.42,3.42,0,0,0,3.22-2.17.27.27,0,0,0-.44-.27,2.33,2.33,0,0,1-1.73.61,2.61,2.61,0,0,1-2.44-2.43,2.54,2.54,0,0,1,.61-1.74c.18-.26,0-.52-.26-.43a3.41,3.41,0,0,0-2.17,3.21A3.27,3.27,0,0,0,301.64,181.83Z"/><path class="cls-1" d="M260.2,327.45a3.4,3.4,0,0,0,3.21-2.17A.26.26,0,0,0,263,325a2.37,2.37,0,0,1-1.74.6,2.61,2.61,0,0,1-2.43-2.43,2.49,2.49,0,0,1,.61-1.74c.17-.26,0-.52-.26-.43a3.41,3.41,0,0,0-2.18,3.21A3.27,3.27,0,0,0,260.2,327.45Z"/><path class="cls-1" d="M193.12,181.83a3.34,3.34,0,0,0,3.22-2.17.27.27,0,0,0-.44-.27,2.33,2.33,0,0,1-1.73.61,2.61,2.61,0,0,1-2.44-2.43,2.54,2.54,0,0,1,.61-1.74c.17-.26,0-.52-.26-.43a3.41,3.41,0,0,0-2.17,3.21A3.27,3.27,0,0,0,193.12,181.83Z"/></svg>