<svg id="Layer_1" data-name="Layer 1" xmlns="http://www.w3.org/2000/svg" viewBox="0 0 698.62 551.76"><defs><style>.cls-1{fill:#fff;}</style></defs><title>Rice_Marks_Digital_Rice_White</title><path class="cls-1" d="M350.75,314.54a70.77,70.77,0,0,1-22.4-54.77,73.86,73.86,0,0,1,20.73-50.51c11.06-11.12,27.93-19.81,56.44-19.81a157.71,157.71,0,0,1,26.84,2.19,150.33,150.33,0,0,0,18.89,2.76c2,0,2.42.92,2.42,2.07s-.57,3.69-1,10.37-.34,16.3-.51,19.07-.58,3.85-1.67,3.85-1.5-1.26-1.5-3.85a25.54,25.54,0,0,0-7.78-18.9,61.76,61.76,0,0,0-37-10.54c-24.59,0-36.06,7.2-42.56,13.48C348,222.91,345,239.38,345,258.56a66.87,66.87,0,0,0,65.94,67.79h.87c13.88,0,24.82-1.67,32.2-9.27a34.54,34.54,0,0,0,6.85-15.55c.4-2,.75-2.77,1.84-2.77S454,300,454,301.53a195.49,195.49,0,0,1-4.09,23.67c-1.09,3.51-1.44,3.92-4.78,5.36a106.84,106.84,0,0,1-33.35,4.26C383.87,334.53,365.15,327.68,350.75,314.54Z"/><path class="cls-1" d="M487.14,245.72c0-28.8,0-34.1-.35-40.32s-1.84-9.21-8-10.54a38.34,38.34,0,0,0-6.33-.52,1.32,1.32,0,0,1-1.44-1.15c0-1.09.92-1.44,2.93-1.44,8.36,0,20,.52,20.91.52H537.3a52.54,52.54,0,0,0,8-.92c.92,0,1.61-.92,2.53-.92s.75.75.75,1.67-.92,3.51-1.44,8.69c0,1.85-.58,10-.92,12.21,0,.93-.58,2-1.33,2s-1.49-.92-1.49-2.36a19.71,19.71,0,0,0-1.1-6.68c-1.26-3-3.17-5.19-13.13-6.28-3.17-.4-23-.58-25.34-.58-.75,0-1.15.58-1.15,1.85v51.08c0,1.33,0,1.85,1.15,1.85,2.36,0,25.17,0,29.43-.35s7-.75,8.7-2.59,2-2.42,2.76-2.42.92.4.92,1.5-.92,4.26-1.49,10.36c-.35,3.69-.75,10.54-.75,11.52s0,3.57-1.27,3.57-1.33-.74-1.33-1.67a19.67,19.67,0,0,0-.69-6.1c-.74-2.59-2.42-5.76-9.67-6.51-5-.57-23-.92-26.44-.92a1.2,1.2,0,0,0-1.32,1.08,1,1,0,0,0,0,.24v47.92c.57,12.79,3.34,15.21,21.48,15.21a52.5,52.5,0,0,0,17.8-2.07c4.78-2,7-5.76,8.29-13.31.4-2.07.75-2.76,1.67-2.76s1.1,1.44,1.1,2.76-1.44,14.05-2.37,18c-1.32,4.78-2.82,4.78-10,4.78-27.93,0-40.31-1.09-45.73-1.09-.92,0-12.55.52-18.14.52-2,0-2.94-.35-2.94-1.44s.35-1.16,1.5-1.16a29.34,29.34,0,0,0,5.76-.69c3.68-.75,4.61-4.84,5.35-10.19.93-7.78.93-22.41.93-40.32Z"/><path class="cls-1" d="M276.68,328.25a16.75,16.75,0,0,1-6.56-1.21,44.16,44.16,0,0,1-16.07-11.52c-10.71-11.52-23-27.93-38.48-47.34C232.22,252.8,238,239.38,238,225.39a32.43,32.43,0,0,0-12.79-25.17,57,57,0,0,0-33.86-8.12c-5.76,0-19.82.52-21.89.52-.92,0-12.56-.52-20.91-.52-2,0-2.93.34-2.93,1.44s.74,1.15,1.49,1.15a36.62,36.62,0,0,1,6.28.52c6.11,1.32,7.6,4.26,7.95,10.54s.35,11.11.35,40.31v32.55c0,17.79,0,32.42-.93,40.31-.69,5.36-1.67,9.45-5.35,10.2a31,31,0,0,1-5.76.69c-1.1,0-1.5.57-1.5,1.15s.92,1.44,3,1.44c5.75,0,17.27-.52,17.27-.52s12.56.52,23,.52c2,0,2.94-.52,2.94-1.44s-.35-1.15-1.44-1.15-5.76-.35-8.35-.69c-5.76-.75-6.68-4.84-7.2-10.2-.92-7.77-.92-22.4-.92-40.31v-4.44c0-.92.34-1.5,1.26-1.5l22.75.41a2.89,2.89,0,0,1,2.42,1.09c3.75,4.84,12.44,17.28,20.22,27.42,10.54,13.88,17.28,23,24.94,27.18a37.68,37.68,0,0,0,19.81,3.51h5.76c5.76,0,17.28-.51,18.14-.51s12.56.51,22.75.51c2,0,2.94-.51,2.94-1.44s-.35-1.15-1.44-1.15-5.76-.34-8.35-.69c-5.76-.75-6.68-4.84-7.2-10.19-.92-7.78-.92-22.41-.92-40.32V245.72c0-28.8,0-34.1.34-40.32s1.85-9.62,6.86-10.54a22.32,22.32,0,0,1,4.89-.52,1.21,1.21,0,0,0,1.21-1.2v-.06c0-1-1-1.33-2.93-1.33-5.76,0-17.28.52-18.15.52s-12.61-.52-18.72-.52c-2,0-2.93.35-2.93,1.44s.69,1.15,1.44,1.15a26.6,26.6,0,0,1,5.76.69c4.09,1,5.76,4.09,6.27,10.37s.41,11.12.41,40.32v32.54c0,17.8,0,32.43-.92,40.32a27,27,0,0,1-1.73,7.14,4.84,4.84,0,0,1-4.21,2.65Zm-65.77-64.79A23.72,23.72,0,0,1,197,267a50.9,50.9,0,0,1-19.47-2.65,2.48,2.48,0,0,1-1.27-2.24V201.25a2.14,2.14,0,0,1,1.44-2.18,54.2,54.2,0,0,1,12.44-1.16c19.82,0,32,13.94,32,37C222.2,249.06,217.36,259,210.91,263.46Z"/></svg>