<?xml version="1.0" encoding="UTF-8"?>
<!DOCTYPE svg PUBLIC "-//W3C//DTD SVG 1.1//EN" "http://www.w3.org/Graphics/SVG/1.1/DTD/svg11.dtd">
<svg xmlns="http://www.w3.org/2000/svg" xml:space="preserve" width="9.93055in" height="3.54166in" version="1.1" style="shape-rendering:geometricPrecision; text-rendering:geometricPrecision; image-rendering:optimizeQuality; fill-rule:evenodd; clip-rule:evenodd"
viewBox="0 0 9931 2300"
 xmlns:xlink="http://www.w3.org/1999/xlink">
 <defs>
  <style type="text/css">
   <![CDATA[
    .fil1 {fill:#fff}
    .fil2 {fill:#fff;fill-rule:nonzero}
    .fil0 {fill:#fff;fill-rule:nonzero}
   ]]>
  </style>
 </defs>
 <g id="Layer_x0020_1">
  <path class="fil1" d="M8954 2038c-35,74 -81,129 -137,165 -58,36 -120,54 -189,54l-1 0c-69,0 -132,-19 -189,-56 -57,-38 -103,-95 -137,-169 -33,-75 -50,-166 -50,-273 0,-101 15,-190 47,-266 31,-77 75,-135 132,-176 57,-42 121,-61 194,-61l4 0c68,0 130,20 188,60 57,40 103,97 138,172 34,75 51,166 51,271 0,112 -17,206 -51,280zm397 -1607c-33,-38 -78,-57 -138,-57 -60,0 -106,20 -138,63 -32,41 -49,102 -49,183l0 582c-74,-82 -151,-140 -229,-180 -48,-24 -106,-42 -170,-51 -37,-5 -75,-8 -118,-8 -195,0 -354,69 -475,207 -120,138 -180,329 -180,576 0,116 15,225 46,324 31,100 74,186 133,260 59,74 129,130 209,171 80,39 167,60 262,60 43,0 84,-4 123,-11 26,-4 50,-10 74,-18 60,-20 116,-50 167,-87 52,-38 105,-88 157,-148l0 38c0,73 18,128 52,167 36,38 80,59 134,59 55,0 100,-19 134,-56 34,-38 52,-95 52,-170l0 -1737c0,-73 -17,-129 -49,-167z"/>
  <path class="fil1" d="M6815 1333c63,-68 143,-101 241,-101l1 0c102,0 185,33 248,100 63,66 100,167 109,303l-714 0c13,-133 51,-234 115,-301zm920 721c-24,-22 -57,-33 -98,-33 -37,0 -65,9 -86,26 -50,46 -89,83 -120,110 -31,26 -65,51 -102,75 -36,23 -74,41 -112,51 -40,11 -82,17 -129,17 -10,0 -20,0 -29,-1 -59,-4 -114,-21 -163,-51 -59,-35 -105,-86 -141,-152 -34,-69 -52,-148 -54,-238l770 0c103,0 184,-15 240,-43 58,-31 86,-95 86,-193 0,-107 -28,-212 -83,-315 -55,-102 -137,-186 -248,-252 -110,-65 -241,-97 -396,-97l-11 0c-114,1 -218,20 -312,56 -97,38 -179,93 -246,164 -65,71 -116,157 -151,257 -35,100 -52,208 -52,324 0,248 70,442 211,586 133,137 317,208 550,216 13,1 27,1 41,1 110,0 208,-14 294,-43 86,-29 156,-65 212,-109 56,-45 98,-91 126,-138 28,-47 42,-89 42,-124 0,-40 -13,-71 -38,-93z"/>
  <path class="fil1" d="M5238 1333c63,-68 143,-101 241,-101l1 0c102,0 185,33 248,100 64,66 100,167 110,303l-715 0c14,-133 52,-234 115,-301zm822 688c-38,0 -66,9 -87,26 -48,46 -89,83 -120,110 -31,26 -64,51 -101,75 -37,23 -74,41 -114,51 -38,11 -82,17 -129,17 -10,0 -20,0 -29,-1 -59,-4 -114,-21 -163,-51 -57,-35 -105,-86 -139,-152 -36,-69 -54,-148 -55,-238l771 0c102,0 183,-15 240,-43 56,-31 84,-95 84,-193 0,-107 -27,-212 -82,-315 -55,-102 -138,-186 -248,-252 -110,-65 -243,-97 -396,-97l-13 0c-114,1 -217,20 -312,56 -97,38 -179,93 -245,164 -66,71 -118,157 -152,257 -35,100 -52,208 -52,324 0,248 72,442 212,586 133,137 315,208 549,216 14,1 27,1 41,1 111,0 208,-14 294,-43 86,-29 156,-65 212,-109 57,-45 98,-91 126,-138 28,-47 42,-89 42,-124 0,-40 -13,-71 -37,-93 -26,-22 -59,-33 -98,-33z"/>
  <path class="fil1" d="M820 2300l0 -940c27,3 52,4 79,4 128,0 248,-35 350,-96l0 1032c0,88 -20,153 -60,197 -40,43 -92,65 -156,65 -63,0 -112,-22 -153,-66 -40,-43 -60,-108 -60,-195z"/>
  <path class="fil1" d="M4134 2038c-34,74 -80,129 -138,165 -56,36 -120,54 -188,54l-1 0c-69,0 -132,-19 -189,-56 -59,-38 -103,-95 -137,-169 -33,-75 -50,-166 -50,-273 0,-101 15,-190 46,-266 32,-77 75,-135 133,-176 56,-42 121,-61 193,-61l5 0c68,0 130,20 187,60 59,40 105,97 139,172 33,75 51,166 51,271 0,112 -18,206 -51,280zm396 -1607c-33,-38 -79,-57 -137,-57 -60,0 -106,20 -138,63 -33,41 -48,102 -48,183l0 582c-74,-82 -151,-140 -229,-180 -50,-24 -106,-42 -170,-51 -37,-5 -75,-8 -117,-8 -195,0 -355,69 -475,207 -120,138 -180,329 -180,576 0,116 15,225 45,324 31,100 75,186 134,260 59,74 129,130 209,171 80,39 167,60 262,60 42,0 83,-4 123,-11 26,-4 50,-10 74,-18 60,-20 116,-50 167,-87 52,-38 103,-88 157,-148l0 38c0,73 18,128 52,167 34,38 80,59 134,59 52,0 98,-19 133,-56 35,-38 51,-95 51,-170l0 -1737c0,-73 -15,-129 -47,-167z"/>
  <path class="fil1" d="M1879 1177l0 49c70,-92 146,-158 227,-202 83,-42 178,-64 285,-64 103,0 197,23 278,68 82,45 142,109 183,192 27,49 43,101 51,157 8,55 12,126 12,213l0 732c0,79 -19,139 -55,179 -36,41 -83,61 -141,61 -59,0 -106,-20 -143,-63 -37,-41 -55,-101 -55,-177l0 -655c0,-130 -18,-230 -54,-299 -36,-69 -109,-103 -216,-103 -70,0 -134,22 -192,63 -57,42 -101,100 -128,174 -19,59 -28,167 -28,330l0 492c0,80 -19,139 -56,180 -37,39 -84,60 -143,60 -57,0 -103,-20 -140,-63 -37,-41 -55,-101 -55,-177l0 -1138c0,-75 17,-131 50,-167 32,-37 77,-56 134,-56 34,0 65,8 93,24 28,17 51,41 68,74 17,33 24,73 24,119z"/>
  <path class="fil1" d="M823 47c105,-38 215,-60 325,-61l13 0c164,1 324,51 458,167 42,40 91,89 110,148 23,74 -80,-8 -94,-18 -74,-49 -148,-89 -231,-117 -447,-138 -870,111 -1133,498 -110,171 -181,351 -240,549 -6,22 -12,50 -23,69 -12,22 -5,-59 -5,-61 9,-82 26,-161 46,-240 121,-422 389,-773 775,-934z"/>
  <path class="fil1" d="M1169 1093c-160,82 -355,18 -435,-142 -82,-160 -18,-355 142,-436 160,-82 355,-18 436,142 82,160 18,355 -142,435z"/>
  <!-- <path class="fil2" d="M2228 3144c0,56 12,98 37,126 24,28 55,42 93,42 37,0 68,-14 92,-42 24,-28 37,-71 37,-129 0,-54 -12,-95 -37,-123 -25,-28 -55,-42 -92,-42 -37,0 -68,14 -93,42 -24,28 -37,70 -37,126zm-76 0c0,-81 23,-141 68,-181 38,-32 84,-49 138,-49 60,0 110,20 148,59 38,39 57,94 57,164 0,56 -8,101 -25,133 -17,32 -42,58 -74,75 -32,18 -68,27 -106,27 -61,0 -111,-20 -149,-59 -38,-39 -57,-96 -57,-170z"/>
  <path class="fil2" d="M2641 3364l0 -439 67 0 0 62c32,-48 79,-72 140,-72 27,0 51,5 73,14 22,9 39,22 50,37 11,15 19,34 23,55 3,14 4,38 4,72l0 270 -74 0 0 -267c0,-30 -3,-53 -9,-68 -6,-15 -16,-27 -31,-36 -15,-9 -32,-13 -52,-13 -32,0 -59,10 -82,30 -23,20 -35,58 -35,114l0 240 -74 0z"/>
  <path class="fil2" d="M3159 3102l245 0c-3,-37 -13,-65 -28,-83 -24,-29 -54,-43 -92,-43 -34,0 -63,11 -86,34 -23,23 -36,53 -39,92zm244 120l77 9c-12,45 -35,80 -67,105 -33,25 -75,37 -126,37 -64,0 -115,-20 -153,-59 -38,-40 -56,-95 -56,-166 0,-74 19,-131 57,-172 38,-41 87,-61 148,-61 59,0 107,20 144,60 37,40 56,96 56,169 0,4 0,11 0,20l-327 0c3,48 16,85 41,111 24,26 55,38 92,38 27,0 50,-7 70,-21 19,-14 35,-37 46,-69z"/>
  <path class="fil2" d="M3762 3233l73 -12c4,30 16,52 35,68 19,16 45,24 79,24 34,0 60,-7 76,-21 17,-14 25,-30 25,-49 0,-17 -7,-30 -22,-40 -10,-7 -35,-15 -76,-25 -54,-14 -92,-26 -113,-36 -21,-10 -37,-24 -48,-42 -11,-18 -16,-37 -16,-59 0,-19 4,-38 13,-54 9,-17 21,-31 37,-42 12,-9 27,-16 47,-22 20,-6 41,-9 64,-9 35,0 65,5 91,15 26,10 45,23 58,40 12,17 21,40 26,68l-73 10c-3,-23 -13,-40 -29,-53 -16,-13 -38,-19 -67,-19 -34,0 -59,6 -73,17 -15,11 -22,25 -22,40 0,10 3,18 9,26 6,8 16,15 29,20 7,3 29,9 66,19 53,14 89,26 110,35 21,9 37,22 49,39 12,17 18,38 18,64 0,25 -7,48 -22,70 -14,22 -35,39 -63,51 -27,12 -58,18 -93,18 -57,0 -100,-12 -130,-36 -30,-24 -49,-59 -57,-105z"/>
  <path class="fil2" d="M4263 3102l245 0c-3,-37 -13,-65 -28,-83 -24,-29 -54,-43 -92,-43 -34,0 -63,11 -86,34 -23,23 -36,53 -39,92zm244 120l77 9c-12,45 -35,80 -67,105 -33,25 -75,37 -126,37 -64,0 -115,-20 -153,-59 -38,-40 -56,-95 -56,-166 0,-74 19,-131 57,-172 38,-41 87,-61 148,-61 59,0 107,20 144,60 37,40 56,96 56,169 0,4 0,11 0,20l-327 0c3,48 16,85 41,111 24,26 55,38 92,38 27,0 51,-7 70,-21 19,-14 35,-37 46,-69z"/>
  <path class="fil2" d="M4949 3143c-27,11 -67,20 -121,28 -31,4 -52,9 -65,15 -13,6 -22,14 -29,24 -7,11 -10,22 -10,35 0,20 8,36 23,50 15,13 37,20 66,20 29,0 54,-6 76,-19 22,-13 39,-30 49,-51 8,-17 12,-42 12,-74l0 -27zm6 166c-28,23 -54,40 -80,50 -25,10 -53,14 -82,14 -48,0 -85,-12 -111,-35 -26,-24 -39,-54 -39,-90 0,-21 5,-41 15,-59 10,-18 23,-32 38,-43 16,-11 34,-19 53,-24 15,-4 37,-8 66,-11 60,-7 104,-16 133,-26 0,-10 0,-17 0,-19 0,-30 -7,-52 -21,-64 -19,-17 -47,-25 -85,-25 -35,0 -61,6 -77,18 -17,12 -29,34 -37,65l-73 -10c7,-31 17,-56 33,-75 15,-19 37,-34 66,-44 29,-10 62,-16 100,-16 37,0 68,4 91,13 24,9 41,20 52,33 11,13 19,30 23,51 3,13 4,36 4,69l0 99c0,69 2,113 5,131 3,18 9,36 19,53l-78 0c-8,-15 -13,-33 -15,-54z"/>
  <path class="fil2" d="M5130 3364l0 -439 67 0 0 67c17,-31 33,-52 47,-62 14,-10 30,-15 48,-15 25,0 51,8 76,24l-26 69c-18,-11 -37,-16 -55,-16 -16,0 -31,5 -44,15 -13,10 -22,23 -28,41 -8,26 -12,55 -12,87l0 230 -74 0z"/>
  <path class="fil2" d="M5690 3203l73 10c-8,50 -28,90 -61,118 -33,28 -73,43 -121,43 -60,0 -108,-20 -145,-59 -36,-39 -55,-95 -55,-169 0,-47 8,-89 24,-124 16,-36 40,-62 72,-80 32,-18 67,-27 105,-27 48,0 87,12 117,36 30,24 50,58 58,103l-72 11c-7,-29 -19,-52 -37,-67 -17,-15 -39,-22 -63,-22 -38,0 -68,13 -91,40 -23,27 -35,69 -35,127 0,59 11,102 34,128 23,27 52,40 88,40 29,0 54,-9 73,-27 20,-18 32,-45 37,-83z"/>
  <path class="fil2" d="M5819 3364l0 -606 74 0 0 217c35,-40 78,-60 131,-60 32,0 61,6 85,19 24,13 41,31 51,53 10,22 15,55 15,98l0 278 -74 0 0 -278c0,-37 -8,-64 -24,-81 -16,-17 -39,-25 -68,-25 -22,0 -43,6 -62,17 -19,11 -33,27 -41,46 -8,19 -12,46 -12,81l0 240 -74 0z"/>
  <polygon class="fil2" points="6302,3364 6386,3364 6386,3279 6302,3279 "/>
  <path class="fil2" d="M7014 3143c-27,11 -68,20 -121,28 -31,4 -52,9 -65,15 -13,6 -22,14 -29,24 -7,11 -10,22 -10,35 0,20 8,36 23,50 15,13 37,20 66,20 29,0 54,-6 76,-19 22,-13 39,-30 49,-51 8,-17 12,-42 12,-74l0 -27zm6 166c-28,23 -54,40 -79,50 -26,10 -53,14 -82,14 -48,0 -85,-12 -111,-35 -26,-24 -39,-54 -39,-90 0,-21 5,-41 15,-59 10,-18 23,-32 39,-43 16,-11 34,-19 53,-24 15,-4 37,-8 66,-11 60,-7 104,-16 133,-26 0,-10 0,-17 0,-19 0,-30 -7,-52 -21,-64 -19,-17 -47,-25 -85,-25 -35,0 -61,6 -78,18 -17,12 -29,34 -37,65l-73 -10c7,-31 18,-56 33,-75 15,-19 37,-34 66,-44 29,-10 62,-16 100,-16 37,0 68,4 91,13 24,9 41,20 52,33 11,13 19,30 23,51 2,13 4,36 4,69l0 99c0,69 2,113 5,131 3,18 9,36 19,53l-78 0c-8,-15 -13,-33 -15,-54z"/>
  <polygon class="fil2" points="7194,3364 7269,3364 7269,2758 7194,2758 "/>
  <polygon class="fil2" points="7374,3364 7448,3364 7448,2758 7374,2758 "/>
  <path class="fil2" d="M7781 2758l74 0 0 86 -74 0 0 -86zm-94 776l14 -63c15,4 27,6 35,6 15,0 27,-5 34,-15 8,-10 11,-35 11,-75l0 -461 74 0 0 463c0,54 -7,92 -21,113 -18,27 -48,41 -89,41 -20,0 -39,-3 -58,-8z"/>
  <path class="fil2" d="M8010 3144c0,56 12,98 37,126 25,28 55,42 93,42 37,0 68,-14 92,-42 24,-28 37,-71 37,-129 0,-54 -12,-95 -37,-123 -25,-28 -55,-42 -92,-42 -37,0 -68,14 -93,42 -24,28 -37,70 -37,126zm-76 0c0,-81 23,-141 68,-181 38,-32 84,-49 138,-49 60,0 110,20 148,59 38,39 57,94 57,164 0,56 -8,101 -25,133 -17,32 -42,58 -74,75 -32,18 -68,27 -106,27 -62,0 -111,-20 -149,-59 -38,-39 -57,-96 -57,-170z"/>
  <path class="fil2" d="M8491 3141c0,53 7,91 21,114 23,38 55,57 95,57 32,0 61,-14 84,-42 24,-28 36,-70 36,-126 0,-57 -11,-100 -34,-127 -23,-27 -50,-41 -82,-41 -32,0 -61,14 -84,42 -24,28 -36,69 -36,123zm1 223l-69 0 0 -606 74 0 0 216c31,-39 71,-59 120,-59 27,0 52,5 77,16 24,11 44,26 59,46 16,20 28,43 37,71 9,28 13,58 13,89 0,75 -19,133 -56,174 -37,41 -82,62 -134,62 -52,0 -92,-22 -122,-65l0 55z"/>
  <path class="fil2" d="M8855 3233l74 -12c4,30 16,52 34,68 19,16 45,24 79,24 34,0 59,-7 76,-21 17,-14 25,-30 25,-49 0,-17 -7,-30 -22,-40 -10,-7 -35,-15 -76,-25 -55,-14 -92,-26 -113,-36 -21,-10 -37,-24 -48,-42 -11,-18 -16,-37 -16,-59 0,-19 5,-38 13,-54 9,-17 21,-31 37,-42 12,-9 27,-16 47,-22 20,-6 41,-9 64,-9 34,0 65,5 91,15 26,10 45,23 58,40 12,17 21,40 26,68l-73 10c-3,-23 -13,-40 -29,-53 -16,-13 -38,-19 -67,-19 -34,0 -59,6 -73,17 -15,11 -22,25 -22,40 0,10 3,18 9,26 6,8 16,15 28,20 8,3 29,9 66,19 53,14 89,26 110,35 21,9 37,22 49,39 12,17 18,38 18,64 0,25 -7,48 -22,70 -14,22 -35,39 -63,51 -27,12 -58,18 -92,18 -57,0 -100,-12 -130,-36 -30,-24 -49,-59 -57,-105z"/>
  <polygon class="fil2" points="9321,3364 9405,3364 9405,3279 9321,3279 "/> -->
 </g>
</svg>
